<svg width="120.1mm" height="34.405mm" clip-rule="evenodd" fill-rule="evenodd" image-rendering="optimizeQuality" shape-rendering="geometricPrecision" text-rendering="geometricPrecision" version="1.1" viewBox="0 0 2365.9 677.76" xml:space="preserve" xmlns="http://www.w3.org/2000/svg">
 <defs>
  </defs>
 <g transform="translate(-.0022802 -48.671)" fill="#4c4083">
  <path d="m512.22 297.86c0 153.85-135.17 153.44-225.07 309.81-1.42-174.63 125.26-262.13 130.71-265.73l-23.48-35.37c-5.44 3.68-115.51 78.86-143.38 228.32-13.82-82.59-12.02-179.99 34.8-249.05 54.01-78.19 171.65-67.69 226.41-67.69v79.71zm0 323.46c-81.58 0-133.67-6.4-200.95 33.24 39.43-96.66 152.85-168.84 188.43-204.42 17.88-21.65 12.52-57.21 12.52 171.17zm-279.68 17.76c8.4 29.02-7.26-17.76-107.44-17.76h-79.71v-403.17c48.46 0 150.15-9.56 204.62 44.91-71.24 95.02-53.36 257.63-17.47 376.02zm46.26-548.25c98.91 0 152.11 85.1 144.23 85.1-33.71 1.61-66.68 9.14-102.84 28.01-59.62 39.84-27.08 28.97-85.52-1.56-31.44-15.71-62.75-24.82-100.15-26.45-7.75 0 45.41-85.1 144.29-85.1zm194.44 84.88c-74.01-169.42-314.9-169.35-388.88 0-108.23 0-81.42-55.3-81.42 466.84 0 28.31 26.88 21.21 122.16 21.21 101.51 0 120.56 62.67 160.22 62.67v-0.06c0.98 0 5.11-2.48 5.23-2.48 69.87-69.87 145.01-60.13 242.89-60.13 30.25 0 21.21-0.37 21.21-466.83 0-29.97-42.15-21.22-81.41-21.22z"/>
  <path d="m706.54 115.12h29.98l42.96 93.52 43.16-93.52h29.78v139.68h-28.98v-79.33l-36.97 79.33h-13.99l-36.77-79.33v79.33h-29.18v-139.68zm213.82 0h29.77l55.75 139.68h-30.97l-11.99-30.37h-55.36l-11.99 30.37h-31.17l55.95-139.68zm34.57 85.13-19.78-53.16-19.78 53.16h39.57zm67.74-85.13h30.37v60.75l52.76-60.75h36.17l-59.15 68.14 63.15 71.54h-36.17l-56.75-64.15v64.15h-30.37v-139.68zm166.46 25.38h-40.77v-25.38h111.91v25.38h-40.77v114.31h-30.37zm111.51-25.38h29.77l55.75 139.68h-30.97l-11.99-30.37h-55.36l-11.99 30.37h-31.17l55.95-139.68zm34.57 85.13-19.78-53.16-19.78 53.16h39.57zm67.74-85.13h68.54c13.19 0 23.51 3.26 30.98 9.79 7.46 6.53 11.19 15.99 11.19 28.38 0 6.26-1.47 11.96-4.39 17.09-2.93 5.13-6.93 9.09-11.99 11.89 6.93 2.53 12.12 6.36 15.59 11.49s5.2 11.82 5.2 20.08c0 8.39-1.9 15.69-5.7 21.88-3.8 6.2-8.99 10.93-15.59 14.19-6.59 3.26-13.89 4.9-21.88 4.9h-71.94v-139.68zm62.75 56.75c5.33 0 9.53-1.33 12.59-4 3.07-2.66 4.6-6.93 4.6-12.79 0-6.39-1.5-10.79-4.5-13.19s-7.56-3.6-13.69-3.6h-31.37v33.57h32.37zm1.8 59.75c6.53 0 11.49-1.3 14.89-3.9s5.09-7.16 5.09-13.69c0-6.66-1.77-11.46-5.3-14.39s-8.76-4.39-15.69-4.39h-33.17v36.37h34.17zm139.09 26.18c-14.92 0-28.11-2.96-39.57-8.89s-20.32-14.35-26.58-25.28c-6.26-10.92-9.39-23.78-9.39-38.57s3.13-27.68 9.39-38.67 15.12-19.45 26.58-25.38 24.65-8.89 39.57-8.89c10.12 0 19.08 1.03 26.88 3.1 7.79 2.07 14.95 5.3 21.48 9.69v28.98c-5.86-4.79-12.56-8.29-20.08-10.49-7.53-2.2-16.09-3.3-25.68-3.3-8.93 0-16.95 1.83-24.08 5.49s-12.76 8.89-16.89 15.69c-4.13 6.79-6.2 14.72-6.2 23.78 0 9.19 1.9 17.22 5.7 24.08s9.16 12.16 16.09 15.89 14.92 5.6 23.98 5.6c8.26 0 15.45-1.47 21.58-4.4v-26.98h-22.58v-22.38h51.96v67.35c-13.19 9.06-30.58 13.59-52.16 13.59zm121.1-142.68h29.77l55.75 139.68h-30.97l-11.99-30.37h-55.36l-11.99 30.37h-31.17l55.95-139.68zm34.57 85.13-19.78-53.16-19.78 53.16h39.57zm128.29 57.55c-14.92 0-28.11-2.96-39.57-8.89s-20.32-14.35-26.58-25.28c-6.26-10.92-9.39-23.78-9.39-38.57s3.13-27.68 9.39-38.67 15.12-19.45 26.58-25.38 24.65-8.89 39.57-8.89c19.32 0 35.44 4.4 48.36 13.19v28.78c-5.86-4.93-12.56-8.49-20.08-10.69-7.53-2.2-16.09-3.3-25.68-3.3-14.52 0-26.01 4.03-34.47 12.09s-12.69 19.02-12.69 32.87c0 13.99 4.26 25.01 12.79 33.07s19.98 12.09 34.37 12.09c9.86 0 18.58-1.17 26.18-3.5 7.59-2.33 14.65-6.1 21.18-11.29v28.78c-12.26 9.06-28.91 13.59-49.96 13.59zm66.95-142.68h30.37v55.95h60.95v-55.95h30.38v139.68h-30.38v-58.55h-60.95v58.55h-30.37zm194.44 0h29.77l55.75 139.68h-30.97l-11.99-30.37h-55.36l-11.99 30.37h-31.17l55.95-139.68zm34.57 85.13-19.78-53.16-19.78 53.16h39.57zm-1484 117.46h32.37l38.37 99.32 38.57-99.32h32.17l-55.75 139.68h-29.77l-55.95-139.68zm183.25 0h29.77l55.75 139.68h-30.97l-11.99-30.37h-55.36l-11.99 30.37h-31.17l55.95-139.68zm34.57 85.13-19.78-53.16-19.78 53.16h39.57zm137.68-85.13h29.98l42.96 93.52 43.16-93.52h29.78v139.68h-28.98v-79.33l-36.97 79.33h-13.99l-36.77-79.33v79.33h-29.18v-139.68zm213.82 0h29.77l55.75 139.68h-30.97l-11.99-30.37h-55.36l-11.99 30.37h-31.17l55.95-139.68zm34.57 85.13-19.78-53.16-19.78 53.16h39.57zm67.74-85.13h30.37v60.75l52.76-60.75h36.17l-59.15 68.14 63.15 71.54h-36.17l-56.75-64.15v64.15h-30.37v-139.68zm166.46 25.38h-40.77v-25.38h111.91v25.38h-40.77v114.31h-30.37zm111.51-25.38h29.77l55.75 139.68h-30.97l-11.99-30.37h-55.36l-11.99 30.37h-31.17l55.95-139.68zm34.57 85.13-19.78-53.16-19.78 53.16h39.57zm67.74-85.13h68.54c13.19 0 23.51 3.26 30.98 9.79 7.46 6.53 11.19 15.99 11.19 28.38 0 6.26-1.47 11.96-4.39 17.09-2.93 5.13-6.93 9.09-11.99 11.89 6.93 2.53 12.12 6.36 15.59 11.49s5.2 11.82 5.2 20.08c0 8.39-1.9 15.69-5.7 21.88-3.8 6.2-8.99 10.93-15.59 14.19-6.59 3.26-13.89 4.9-21.88 4.9h-71.94v-139.68zm62.75 56.75c5.33 0 9.53-1.33 12.59-4 3.07-2.66 4.6-6.93 4.6-12.79 0-6.39-1.5-10.79-4.5-13.19s-7.56-3.6-13.69-3.6h-31.37v33.57h32.37zm1.8 59.75c6.53 0 11.49-1.3 14.89-3.9s5.09-7.16 5.09-13.69c0-6.66-1.77-11.46-5.3-14.39s-8.76-4.39-15.69-4.39h-33.17v36.37h34.17zm-1079.1 111.46h-40.77v-25.38h111.91v25.38h-40.77v114.31h-30.37zm111.51-25.38h29.77l55.75 139.68h-30.97l-11.99-30.37h-55.36l-11.99 30.37h-31.17l55.95-139.68zm34.57 85.13-19.78-53.16-19.78 53.16h39.57zm122.7-85.13h30.37v114.31h63.95v25.38h-94.32v-139.68zm107.31 0h30.37v139.68h-30.37zm51.36 0h29.98l42.96 93.52 43.16-93.52h29.78v139.68h-28.98v-79.33l-36.97 79.33h-13.99l-36.77-79.33v79.33h-29.18v-139.68zm166.86 0h30.37v139.68h-30.37zm117.3 0h32.37l38.37 99.32 38.57-99.32h32.17l-55.75 139.68h-29.77l-55.95-139.68zm183.25 0h29.77l55.75 139.68h-30.97l-11.99-30.37h-55.36l-11.99 30.37h-31.17l55.95-139.68zm34.57 85.13-19.78-53.16-19.78 53.16h39.57zm60.75 34.37 68.34-94.12h-66.55v-25.38h104.11v20.38l-67.94 93.92h71.94v25.38h-109.91v-20.18zm126.9-119.5h30.37v139.68h-30.37zm51.36 0h60.55c15.85 0 28.21 3.96 37.07 11.89s13.29 19.35 13.29 34.27c0 10.39-2.4 19.22-7.19 26.48-4.8 7.26-11.59 12.55-20.38 15.89l26.58 51.16h-31.17l-24.58-47.36h-23.78v47.36h-30.37v-139.68zm55.16 66.94c7.73 0 13.82-1.66 18.28-5 4.46-3.33 6.7-8.59 6.7-15.79 0-7.59-2.2-12.96-6.6-16.09-4.39-3.13-10.52-4.7-18.38-4.7h-24.78v41.56h24.78zm72.74-66.94h30.37v114.31h63.95v25.38h-94.32v-139.68zm107.31 0h30.37v139.68h-30.37zm122.9 142.68c-14.92 0-28.11-2.96-39.57-8.89s-20.32-14.35-26.58-25.28c-6.26-10.92-9.39-23.78-9.39-38.57s3.13-27.68 9.39-38.67 15.12-19.45 26.58-25.38 24.65-8.89 39.57-8.89c10.12 0 19.08 1.03 26.88 3.1 7.79 2.07 14.95 5.3 21.48 9.69v28.98c-5.86-4.79-12.56-8.29-20.08-10.49-7.53-2.2-16.09-3.3-25.68-3.3-8.93 0-16.95 1.83-24.08 5.49s-12.76 8.89-16.89 15.69c-4.13 6.79-6.2 14.72-6.2 23.78 0 9.19 1.9 17.22 5.7 24.08s9.16 12.16 16.09 15.89 14.92 5.6 23.98 5.6c8.26 0 15.45-1.47 21.58-4.4v-26.98h-22.58v-22.38h51.96v67.35c-13.19 9.06-30.58 13.59-52.16 13.59zm69.14-142.68h30.37v139.68h-30.37zm-1372.9-3h28.98l-16.19 39.57h-25.78z"/>
 </g>
</svg>
